<?xml version="1.0" encoding="UTF-8"?>
<svg id="Capa_1" data-name="Capa 1" xmlns="http://www.w3.org/2000/svg" viewBox="0 0 35.03 40.03">
  <defs>
    <style>
      .cls-1 {
        fill: #f2b704;
      }
    </style>
  </defs>
  <path class="cls-1" d="M10.01,0c1.38,0,2.5,1.12,2.5,2.5v2.5h10.01V2.5c0-1.38,1.12-2.5,2.5-2.5s2.5,1.12,2.5,2.5v2.5h3.75c2.07,0,3.75,1.68,3.75,3.75v3.75H0v-3.75c0-2.07,1.68-3.75,3.75-3.75h3.75V2.5c0-1.38,1.12-2.5,2.5-2.5ZM0,15.01H35.03v21.27c0,2.07-1.68,3.75-3.75,3.75H3.75c-2.07,0-3.75-1.68-3.75-3.75V15.01Zm5,6.25v2.5c0,.69,.56,1.25,1.25,1.25h2.5c.69,0,1.25-.56,1.25-1.25v-2.5c0-.69-.56-1.25-1.25-1.25h-2.5c-.69,0-1.25,.56-1.25,1.25Zm10.01,0v2.5c0,.69,.56,1.25,1.25,1.25h2.5c.69,0,1.25-.56,1.25-1.25v-2.5c0-.69-.56-1.25-1.25-1.25h-2.5c-.69,0-1.25,.56-1.25,1.25Zm11.26-1.25c-.69,0-1.25,.56-1.25,1.25v2.5c0,.69,.56,1.25,1.25,1.25h2.5c.69,0,1.25-.56,1.25-1.25v-2.5c0-.69-.56-1.25-1.25-1.25h-2.5ZM5,31.27v2.5c0,.69,.56,1.25,1.25,1.25h2.5c.69,0,1.25-.56,1.25-1.25v-2.5c0-.69-.56-1.25-1.25-1.25h-2.5c-.69,0-1.25,.56-1.25,1.25Zm11.26-1.25c-.69,0-1.25,.56-1.25,1.25v2.5c0,.69,.56,1.25,1.25,1.25h2.5c.69,0,1.25-.56,1.25-1.25v-2.5c0-.69-.56-1.25-1.25-1.25h-2.5Zm8.76,1.25v2.5c0,.69,.56,1.25,1.25,1.25h2.5c.69,0,1.25-.56,1.25-1.25v-2.5c0-.69-.56-1.25-1.25-1.25h-2.5c-.69,0-1.25,.56-1.25,1.25Z"/>
</svg>